<svg width="40" height="40" viewBox="0 0 40 40" fill="none" xmlns="http://www.w3.org/2000/svg">
<path d="M20.0176 9.80922C19.6658 9.80922 19.3179 9.82717 18.9751 9.86228C18.6324 9.89739 18.2943 9.94942 17.962 10.0177C17.6297 10.086 17.3034 10.1706 16.9835 10.2704L16.0447 10.6151L15.1509 11.0467L14.3075 11.5599L13.5194 12.1494L12.7922 12.81L12.1309 13.5366L11.5408 14.3237L11.027 15.1664L10.5951 16.0592C10.4653 16.3646 10.3499 16.6776 10.2499 16.9972C10.15 17.3168 10.0654 17.6431 9.99694 17.975C9.92852 18.3069 9.8765 18.6445 9.84125 18.9871C9.80602 19.3296 9.78833 19.6771 9.78833 20.0285C9.78833 20.3798 9.80627 20.7274 9.84125 21.0699C9.87605 21.4097 9.928 21.7476 9.99694 22.0821C10.0654 22.4153 10.15 22.7402 10.2499 23.0599C10.3499 23.3794 10.4652 23.6924 10.5951 23.9979L11.027 24.8907L11.5408 25.7332L12.1309 26.5205L12.7922 27.2471L13.5194 27.9078L14.3075 28.4972L15.1509 29.0103L16.0447 29.4419L16.9835 29.7867L17.962 30.0394C18.2969 30.1083 18.635 30.1603 18.9751 30.195C19.3215 30.2303 19.6694 30.2481 20.0176 30.2478C20.3693 30.2478 20.7172 30.23 21.0599 30.195C21.4 30.1603 21.7382 30.1083 22.073 30.0394L23.0517 29.7867L23.9904 29.4419L24.8841 29.0103L25.7277 28.4972L26.5158 27.9078L27.2431 27.2471L27.9045 26.5205L28.4945 25.7332L29.0084 24.8907L29.4403 23.9979L29.7853 23.0599C29.8853 22.7402 29.97 22.414 30.0384 22.0821L30.1939 21.0698C30.2292 20.7272 30.247 20.3797 30.247 20.0283C30.247 19.677 30.2292 19.3294 30.1939 18.9869C30.1592 18.6471 30.1072 18.3094 30.0384 17.9748C29.97 17.6417 29.8853 17.3168 29.7853 16.9971L29.4403 16.0591L29.0084 15.1663L28.4945 14.3236L27.9045 13.5364L27.2431 12.8098L26.5158 12.1492L25.7277 11.5598L24.8841 11.0466L23.9904 10.615L23.0517 10.2703L22.073 10.0176L21.0599 9.86214C20.7136 9.82678 20.3657 9.80905 20.0176 9.80908V9.80922ZM20.0176 13.3365C20.2502 13.3365 20.4797 13.3481 20.7057 13.3709L21.3721 13.4717L22.0157 13.6357L22.6321 13.8596L23.2181 14.1402L23.7691 14.4741L24.2843 14.8581L24.7592 15.2889L25.1904 15.7633L25.5748 16.2779L25.909 16.8297L26.1897 17.4154C26.274 17.6158 26.3488 17.8212 26.4139 18.0312C26.479 18.2412 26.5337 18.4559 26.5779 18.6745C26.6221 18.8931 26.6548 19.1156 26.6788 19.3415L26.7131 20.0291C26.7131 20.2614 26.7016 20.4908 26.6788 20.7169C26.656 20.9429 26.6224 21.1654 26.5779 21.3839C26.5335 21.6023 26.4786 21.817 26.4139 22.0271L26.1897 22.643L25.909 23.2286L25.5748 23.7803L25.1904 24.295L24.7592 24.7694L24.2843 25.2002L23.7691 25.5843L23.2181 25.9181L22.6321 26.1987L22.0157 26.4226L21.3721 26.5866L20.7057 26.6874C20.477 26.7103 20.2473 26.7217 20.0175 26.7217C19.7876 26.7217 19.5578 26.7103 19.3291 26.6874L18.6627 26.5866C18.444 26.5423 18.2292 26.4875 18.0189 26.4226L17.4026 26.1987L16.8166 25.9181L16.2655 25.5843L15.7504 25.2002L15.2755 24.7694L14.8443 24.295L14.4598 23.7803L14.1256 23.2286L13.845 22.643L13.6207 22.0271L13.4567 21.3839L13.3559 20.7169C13.3329 20.4883 13.3215 20.2588 13.3215 20.0291C13.3215 19.7995 13.3329 19.57 13.3559 19.3415C13.3786 19.1156 13.4122 18.893 13.4567 18.6745C13.5007 18.4575 13.5555 18.2429 13.6209 18.0313L13.8451 17.4155L14.1258 16.8299L14.46 16.2781L14.8444 15.7634L15.2756 15.2891L15.7505 14.8582L16.2656 14.4742L16.8167 14.1404L17.4027 13.8597C17.6044 13.775 17.8101 13.7003 18.0192 13.6359L18.663 13.4718C18.8817 13.4275 19.1044 13.3937 19.3293 13.371C19.5581 13.3481 19.7878 13.3366 20.0177 13.3366L20.0176 13.3365Z" fill="url(#paint0_radial_84_120)"/>
<path d="M30.6617 6.90215C30.5806 6.90215 30.4994 6.90626 30.4186 6.91445C30.3378 6.92262 30.2575 6.93484 30.1778 6.95109C30.0983 6.96734 30.0194 6.98756 29.9419 7.0117C29.8642 7.03587 29.7881 7.06392 29.7131 7.09576C29.6383 7.12765 29.5653 7.16328 29.4939 7.20251C29.4225 7.24167 29.3533 7.2844 29.2864 7.33053C29.2192 7.3767 29.1544 7.42623 29.0925 7.47892C29.0303 7.53156 28.9708 7.58728 28.9142 7.6459C28.8578 7.70453 28.8042 7.76601 28.7536 7.83003C28.7031 7.89409 28.6558 7.96062 28.6119 8.02942C28.5681 8.09817 28.5278 8.16909 28.4908 8.2419C28.4542 8.31476 28.4208 8.38942 28.3914 8.46565C28.3619 8.54181 28.3364 8.61945 28.3144 8.6982C28.2928 8.77698 28.275 8.85678 28.2614 8.93734C28.2475 9.01787 28.2378 9.09903 28.2319 9.18056C28.2278 9.23828 28.2258 9.29617 28.2258 9.35406C28.2258 9.43584 28.2297 9.51756 28.2381 9.59895C28.2461 9.68028 28.2583 9.76115 28.2744 9.84126C28.2906 9.92137 28.3106 10.0006 28.3344 10.0787C28.3586 10.1568 28.3864 10.2337 28.4181 10.309C28.4497 10.3843 28.485 10.458 28.5242 10.5298C28.5631 10.6015 28.6056 10.6713 28.6514 10.7388C28.6972 10.8062 28.7464 10.8713 28.7986 10.9338C28.8511 10.9964 28.9064 11.0563 28.9647 11.1132C29.0231 11.1702 29.0839 11.2241 29.1478 11.275C29.2114 11.3258 29.2775 11.3734 29.3458 11.4176C29.4142 11.4618 29.4847 11.5025 29.5569 11.5396C29.6294 11.5767 29.7036 11.6101 29.7792 11.6398C29.855 11.6694 29.9319 11.6952 30.0103 11.717C30.0886 11.7389 30.1678 11.7568 30.2478 11.7706C30.3278 11.7845 30.4086 11.7944 30.4894 11.8002C30.5469 11.8043 30.6044 11.8063 30.6619 11.8064C30.7431 11.8064 30.8244 11.8023 30.9053 11.7942C30.9858 11.786 31.0664 11.7738 31.1458 11.7575C31.2256 11.7413 31.3042 11.7211 31.3819 11.6969C31.4594 11.6728 31.5358 11.6447 31.6106 11.6129C31.6853 11.581 31.7586 11.5454 31.8297 11.5062C31.9011 11.467 31.9703 11.4243 32.0375 11.3781C32.1044 11.332 32.1692 11.2825 32.2314 11.2298C32.2933 11.1771 32.3528 11.1214 32.4094 11.0627C32.4661 11.0041 32.5197 10.9426 32.57 10.8786C32.6206 10.8145 32.6678 10.748 32.7117 10.6792C32.7556 10.6104 32.7961 10.5395 32.8328 10.4666C32.8697 10.3937 32.9031 10.3191 32.9325 10.2429C32.9619 10.1667 32.9875 10.0891 33.0092 10.0103C33.0308 9.93153 33.0486 9.85173 33.0625 9.77117C33.0764 9.69065 33.0861 9.60945 33.0917 9.52795C33.0958 9.4702 33.0981 9.41234 33.0981 9.35445C33.0981 9.2727 33.0939 9.19101 33.0858 9.10967C33.0778 9.02834 33.0656 8.94748 33.0494 8.86737C33.0333 8.78726 33.0131 8.70801 32.9892 8.62992C32.965 8.55181 32.9372 8.47495 32.9056 8.39965C32.8739 8.32431 32.8386 8.25062 32.7997 8.17884C32.7608 8.10709 32.7183 8.03734 32.6725 7.96984C32.6264 7.90234 32.5772 7.83723 32.525 7.77467C32.4725 7.71215 32.4172 7.65226 32.3592 7.59528C32.3008 7.53834 32.2397 7.48437 32.1761 7.43356C32.1125 7.38276 32.0464 7.3352 31.9781 7.29106C31.9097 7.24687 31.8392 7.20615 31.7667 7.16906C31.6942 7.13195 31.62 7.09851 31.5444 7.06887C31.4689 7.03923 31.3917 7.01345 31.3133 6.99159C31.2353 6.9697 31.1558 6.95178 31.0758 6.9379C30.9958 6.92403 30.9153 6.91417 30.8342 6.90842C30.7767 6.90431 30.7192 6.90228 30.6617 6.90228V6.90215Z" fill="url(#paint1_radial_84_120)"/>
<path d="M18.0778 0.0361698C16.9653 0.0343757 15.9724 0.0389884 15.0805 0.0515465L12.6894 0.115619C11.981 0.146373 11.3551 0.18648 10.7933 0.238378C10.5124 0.264263 10.2474 0.293223 9.99628 0.325132C9.75725 0.355257 9.51892 0.390335 9.28136 0.43034C9.05517 0.468785 8.84053 0.510301 8.63472 0.555407C8.42894 0.600515 8.23236 0.64921 8.04269 0.701493C7.85731 0.752618 7.67333 0.808854 7.49106 0.870132C7.31242 0.93036 7.13814 0.994176 6.96603 1.06235C6.62183 1.1987 6.28611 1.3517 5.94036 1.52315C5.67433 1.65514 5.42856 1.7888 5.19508 1.93027C4.96161 2.07174 4.74042 2.22116 4.52386 2.3839C4.30083 2.55232 4.08586 2.73115 3.87969 2.91981C3.66414 3.11612 3.444 3.33203 3.21525 3.57334C2.92783 3.87487 2.67807 4.15601 2.45638 4.4319C2.34554 4.56978 2.24174 4.70615 2.14397 4.84326C2.04727 4.97837 1.95484 5.11651 1.86679 5.2574C1.77965 5.39709 1.69713 5.53934 1.61819 5.68567C1.53802 5.83453 1.46226 5.98573 1.39099 6.13903C1.24516 6.45223 1.10907 6.78951 0.973238 7.16601C0.872469 7.44431 0.782233 7.72637 0.702724 8.01148C0.621611 8.3029 0.549466 8.60776 0.485135 8.93745C0.420808 9.26717 0.36468 9.62176 0.315344 10.0139C0.26218 10.4437 0.219709 10.8748 0.187969 11.3067C0.152089 11.7816 0.12236 12.3042 0.0980121 12.8858L0.0403474 14.8198L0.00933627 17.1773L0.000366211 20.0268L0.0266358 24.1706L0.108648 27.3101L0.171823 28.5364L0.25076 29.5528C0.276065 29.8267 0.307724 30.0997 0.345716 30.3722C0.380313 30.6142 0.417477 30.8258 0.457458 31.0092C0.538583 31.3817 0.634511 31.7508 0.745013 32.1158C0.850819 32.4653 0.971816 32.8097 1.10766 33.1486C1.24119 33.4806 1.38727 33.8006 1.54617 34.1086C1.70507 34.4167 1.87678 34.7128 2.06131 34.9972C2.24584 35.2814 2.44318 35.5542 2.65385 35.8153C2.86428 36.0764 3.08811 36.3261 3.32444 36.5642C3.56111 36.8025 3.81075 37.0292 4.07383 37.2447C4.34 37.4628 4.61672 37.6678 4.90292 37.8586C5.16856 38.0361 5.43139 38.1989 5.69614 38.3481C5.96086 38.4975 6.22792 38.6328 6.50242 38.7561C6.77689 38.8792 7.05831 38.99 7.35228 39.0897C7.64622 39.1895 7.9525 39.2781 8.27619 39.3567C8.59989 39.4356 8.94253 39.5045 9.30519 39.5647C9.66783 39.625 10.0555 39.6767 10.4696 39.7211C10.8838 39.7656 11.3256 39.8022 11.8004 39.8331C12.2752 39.8639 12.7826 39.8883 13.3279 39.9081C14.1702 39.9386 15.4452 39.9564 16.9156 39.9633L21.6755 39.9536L26.1828 39.8906L27.8967 39.8422L29.0131 39.785C29.2528 39.7653 29.4873 39.7422 29.7136 39.7153C29.94 39.6883 30.1631 39.6575 30.3806 39.6222C30.5978 39.5872 30.8103 39.5481 31.0189 39.5045C31.2253 39.4614 31.4306 39.4133 31.6345 39.3606C31.8364 39.3092 32.0356 39.2508 32.2328 39.1889C32.4298 39.1272 32.625 39.0603 32.8189 38.9883C33.0139 38.9161 33.207 38.8392 33.3984 38.7578C33.5909 38.6756 33.7831 38.5881 33.9761 38.495C34.2725 38.3522 34.5111 38.2331 34.7206 38.117C34.9178 38.0089 35.1075 37.8881 35.2889 37.755C35.4678 37.6233 35.6456 37.4733 35.8506 37.2845C36.0556 37.0956 36.2881 36.8681 36.5756 36.5803C36.8286 36.3275 37.0417 36.1078 37.2256 35.9081C37.4095 35.7083 37.5645 35.5286 37.7003 35.3553C37.8298 35.1908 37.9503 35.0197 38.0617 34.8425C38.1703 34.6695 38.2703 34.4897 38.372 34.2906C38.5253 33.9908 38.6617 33.7131 38.7836 33.445C38.9023 33.187 39.0106 32.9239 39.1084 32.6572C39.2048 32.3925 39.2884 32.1233 39.3586 31.8506C39.4309 31.57 39.4931 31.2736 39.547 30.9486C39.6006 30.6236 39.6461 30.27 39.6856 29.875C39.725 29.4803 39.7586 29.0436 39.7881 28.5533L39.8664 26.907L39.9334 24.8596L39.9814 22.5787L39.9997 20.1937L39.957 15.5093L39.8998 13.4112L39.8217 11.6098L39.7242 10.2053C39.6889 9.81448 39.6506 9.50667 39.6103 9.29856C39.5653 9.06862 39.5153 8.83976 39.46 8.61209C39.4061 8.39059 39.347 8.17042 39.2825 7.95179C39.2198 7.73876 39.1514 7.52737 39.0778 7.31784C39.005 7.1109 38.9278 6.90829 38.847 6.71006C38.7664 6.51181 38.6789 6.3182 38.5881 6.12867C38.497 5.93915 38.4017 5.75423 38.3017 5.57353C38.2014 5.39287 38.0973 5.21667 37.9881 5.04481C37.8792 4.87298 37.7656 4.70548 37.6473 4.54248C37.5298 4.38001 37.407 4.22126 37.2795 4.06642C37.1525 3.91248 37.0209 3.76256 36.8845 3.6169C36.7484 3.47145 36.6075 3.33034 36.4625 3.19378C36.3172 3.05717 36.1678 2.92492 36.0136 2.79703C35.8586 2.66873 35.7 2.54527 35.5373 2.42683C35.3731 2.30718 35.2053 2.19257 35.0339 2.08315C34.8603 1.97217 34.6836 1.86636 34.5036 1.76586C34.3209 1.66368 34.1348 1.56676 33.9464 1.47523C33.6334 1.32312 33.3439 1.18819 33.06 1.0685C32.7806 0.949718 32.4959 0.844221 32.2067 0.752368C31.9159 0.660743 31.6131 0.582193 31.28 0.514404C30.9467 0.446615 30.5834 0.390104 30.1723 0.342048C29.7611 0.293996 29.302 0.255168 28.7767 0.222876C28.2517 0.190584 27.661 0.165209 26.9866 0.144706L24.6946 0.0934493L21.7937 0.0592348L18.0791 0.036424L18.0778 0.0361698ZM20.007 3.5604L25.3639 3.5909L27.3847 3.62984C27.9411 3.64548 28.3659 3.66381 28.6147 3.68495C28.9392 3.71226 29.2478 3.74645 29.5434 3.78748C29.8267 3.82662 30.1089 3.87528 30.3889 3.93342C30.6581 3.98981 30.9148 4.05387 31.1606 4.12615C31.4061 4.19842 31.6409 4.27942 31.8659 4.36898C32.0911 4.45856 32.3064 4.55709 32.5136 4.66501C32.7192 4.77209 32.9189 4.88992 33.112 5.01803C33.3042 5.14553 33.4895 5.28292 33.6695 5.43092C33.8492 5.57892 34.0236 5.73756 34.1939 5.90723C34.3739 6.08626 34.5397 6.26859 34.6925 6.4567C34.8447 6.64367 34.9859 6.83962 35.1145 7.04348C35.2448 7.25026 35.362 7.4649 35.4659 7.68612C35.572 7.91167 35.6673 8.15001 35.7528 8.40334C35.8386 8.6567 35.9147 8.92592 35.9823 9.21362C36.0531 9.51862 36.1123 9.82617 36.16 10.1356C36.2111 10.4637 36.255 10.8135 36.2922 11.1881C36.3292 11.5626 36.36 11.9621 36.3853 12.3894C36.4056 12.7322 36.4234 13.1846 36.4384 13.7188L36.4759 15.5404L36.5045 20.0023L36.472 24.4601L36.4328 26.2764L36.3786 27.5975C36.3414 28.2161 36.302 28.7361 36.2547 29.1886C36.2311 29.415 36.2053 29.6245 36.177 29.8208C36.1503 30.0064 36.1186 30.1911 36.0822 30.375C36.0489 30.5428 36.0103 30.7095 35.9661 30.875C35.9242 31.0325 35.8767 31.1889 35.8242 31.3436C35.7711 31.4989 35.7136 31.6525 35.6514 31.8042C35.5856 31.9647 35.5161 32.1233 35.4431 32.2806C35.3781 32.4208 35.3098 32.5575 35.2375 32.6903C35.1661 32.822 35.09 32.9508 35.01 33.0772C34.9306 33.2025 34.8473 33.3242 34.76 33.442C34.6734 33.5592 34.5825 33.6733 34.4875 33.7842C34.3931 33.8947 34.2945 34.0014 34.192 34.1047C34.0895 34.2078 33.9831 34.3072 33.8728 34.4033C33.7628 34.4995 33.6484 34.592 33.53 34.6808C33.412 34.7697 33.2895 34.855 33.1631 34.9367C33.0364 35.0186 32.9061 35.097 32.7714 35.172C32.6367 35.2467 32.4978 35.3181 32.355 35.3861C32.2095 35.4553 32.0623 35.52 31.9128 35.5803C31.7586 35.6425 31.6028 35.7003 31.4453 35.7539C31.1248 35.8631 30.787 35.9589 30.4311 36.0414C30.0606 36.1272 29.6864 36.1972 29.3098 36.2514C29.1648 36.2725 28.832 36.2925 28.3553 36.3108L26.5388 36.3614L21.3887 36.4283L15.9982 36.4367L13.8812 36.4142L12.5066 36.3714L11.493 36.3C11.1783 36.2736 10.8856 36.2442 10.6114 36.2106C10.3371 36.1772 10.0817 36.14 9.84147 36.0978C9.61378 36.0586 9.38747 36.0114 9.16294 35.957C8.95822 35.9072 8.75558 35.8492 8.55556 35.7831C8.36269 35.7189 8.17828 35.6483 7.99889 35.5708C7.81947 35.4933 7.64519 35.4083 7.47258 35.3156C7.29997 35.2228 7.12917 35.1222 6.95642 35.0122C6.82611 34.9295 6.70014 34.8456 6.57892 34.757C6.45769 34.6681 6.34056 34.5795 6.22781 34.4867C6.11503 34.3939 6.00675 34.2983 5.90231 34.2C5.79855 34.102 5.69839 34.0003 5.60194 33.8953C5.50583 33.7903 5.41394 33.6825 5.32578 33.5708C5.23728 33.4586 5.15294 33.3431 5.07297 33.2247C4.99178 33.1045 4.91497 32.9814 4.84269 32.8558C4.76964 32.7289 4.70019 32.5978 4.63419 32.4622C4.56708 32.3245 4.50447 32.1845 4.44647 32.0425C4.38753 31.8978 4.33164 31.7486 4.27911 31.5947C4.17403 31.2864 4.08178 30.9583 4.00156 30.6086C3.92133 30.2589 3.85289 29.8872 3.79497 29.4911C3.73706 29.0953 3.69042 28.6753 3.65325 28.2292C3.62583 27.9006 3.60406 27.3886 3.58739 26.7427L3.55253 24.4458L3.56533 18.5902L3.66619 12.9949L3.74308 11.0235L3.78664 10.3719C3.80178 10.1979 3.81742 10.069 3.83342 9.99156C3.88622 9.73695 3.93939 9.50001 3.99436 9.2782C4.04572 9.06892 4.10286 8.86115 4.16569 8.65504C4.22542 8.46051 4.28833 8.27829 4.35561 8.10567C4.42047 7.93845 4.49278 7.77423 4.5723 7.61348C4.64994 7.45715 4.73339 7.30745 4.82397 7.16176C4.91458 7.01606 5.01236 6.87473 5.11897 6.73415C5.22558 6.59356 5.34039 6.45478 5.46533 6.31409C5.59028 6.1734 5.72522 6.03129 5.87156 5.88481C6.04211 5.71328 6.21969 5.5489 6.40386 5.39209C6.57778 5.24415 6.75911 5.10517 6.94719 4.97576C7.13211 4.84759 7.32178 4.73356 7.51925 4.62873C7.71672 4.52392 7.922 4.4292 8.13792 4.34401C8.35383 4.25878 8.58067 4.18253 8.82092 4.11334C9.07336 4.04253 9.32858 3.98212 9.58594 3.93226C9.85658 3.87923 10.144 3.83295 10.4509 3.79259C10.7578 3.75223 11.0843 3.71737 11.4334 3.68712C11.6769 3.66612 12.0964 3.6474 12.6489 3.63165L14.6594 3.59192L20.0079 3.55923L20.007 3.5604Z" fill="url(#paint2_radial_84_120)"/>
<defs>
<radialGradient id="paint0_radial_84_120" cx="0" cy="0" r="1" gradientUnits="userSpaceOnUse" gradientTransform="translate(6.37289 42.8739) rotate(-9.53101) scale(84.5383 51.3142)">
<stop/>
</radialGradient>
<radialGradient id="paint1_radial_84_120" cx="0" cy="0" r="1" gradientUnits="userSpaceOnUse" gradientTransform="translate(6.37294 42.8739) rotate(-9.53102) scale(84.5383 51.3142)">
<stop/>
</radialGradient>
<radialGradient id="paint2_radial_84_120" cx="0" cy="0" r="1" gradientUnits="userSpaceOnUse" gradientTransform="translate(6.37298 42.8739) rotate(-9.53101) scale(84.5383 51.3142)">
<stop/>
</radialGradient>
</defs>
</svg>
