<svg width="45" height="45" viewBox="0 0 45 45" fill="none" xmlns="http://www.w3.org/2000/svg">
<path d="M35.7188 9.20625C33.9998 7.46987 31.9522 6.09313 29.6956 5.15635C27.4389 4.21957 25.0183 3.74149 22.575 3.75C12.3375 3.75 3.99375 12.0938 3.99375 22.3313C3.99375 25.6125 4.85625 28.8 6.46875 31.6125L3.84375 41.25L13.6875 38.6625C16.4063 40.1438 19.4625 40.9313 22.575 40.9313C32.8125 40.9313 41.1563 32.5875 41.1563 22.35C41.1563 17.3813 39.225 12.7125 35.7188 9.20625V9.20625ZM22.575 37.7813C19.8 37.7813 17.0813 37.0313 14.7 35.625L14.1375 35.2875L8.2875 36.825L9.84375 31.125L9.46875 30.5438C7.92702 28.0818 7.10839 25.2361 7.10625 22.3313C7.10625 13.8188 14.0438 6.88126 22.5563 6.88126C26.6813 6.88126 30.5625 8.49376 33.4688 11.4188C34.9078 12.8512 36.0482 14.555 36.8239 16.4314C37.5995 18.3079 37.9951 20.3196 37.9875 22.35C38.025 30.8625 31.0875 37.7813 22.575 37.7813V37.7813ZM31.05 26.2313C30.5813 26.0063 28.2938 24.8813 27.8813 24.7125C27.45 24.5625 27.15 24.4875 26.8313 24.9375C26.5125 25.4063 25.6313 26.4563 25.3688 26.7563C25.1063 27.075 24.825 27.1125 24.3563 26.8688C23.8875 26.6438 22.3875 26.1375 20.625 24.5625C19.2375 23.325 18.3188 21.8063 18.0375 21.3375C17.775 20.8688 18 20.625 18.2438 20.3813C18.45 20.175 18.7125 19.8375 18.9375 19.575C19.1625 19.3125 19.2563 19.1063 19.4063 18.8063C19.5563 18.4875 19.4813 18.225 19.3688 18C19.2563 17.775 18.3188 15.4875 17.9438 14.55C17.5688 13.65 17.175 13.7625 16.8938 13.7438H15.9938C15.675 13.7438 15.1875 13.8563 14.7563 14.325C14.3438 14.7938 13.1438 15.9188 13.1438 18.2063C13.1438 20.4938 14.8125 22.7063 15.0375 23.0063C15.2625 23.325 18.3188 28.0125 22.9688 30.0188C24.075 30.5063 24.9375 30.7875 25.6125 30.9938C26.7188 31.35 27.7313 31.2938 28.5375 31.1813C29.4375 31.05 31.2938 30.0563 31.6688 28.9688C32.0625 27.8813 32.0625 26.9625 31.9313 26.7563C31.8 26.55 31.5188 26.4563 31.05 26.2313V26.2313Z" fill="black"/>
</svg>
